<?xml version="1.0" encoding="UTF-8" standalone="no"?>
<!-- Created with Inkscape (http://www.inkscape.org/) -->

<svg
   version="1.1"
   id="svg2"
   xml:space="preserve"
   width="745.65021"
   height="366.77606"
   viewBox="0 0 745.65021 366.77607"
   sodipodi:docname="demo.svg"
   inkscape:version="1.1.2 (0a00cf5339, 2022-02-04)"
   xmlns:inkscape="http://www.inkscape.org/namespaces/inkscape"
   xmlns:sodipodi="http://sodipodi.sourceforge.net/DTD/sodipodi-0.dtd"
   xmlns="http://www.w3.org/2000/svg"
   xmlns:svg="http://www.w3.org/2000/svg"><sodipodi:namedview
   id="namedview116"
   pagecolor="#ffffff"
   bordercolor="#666666"
   borderopacity="1.0"
   inkscape:pageshadow="2"
   inkscape:pageopacity="0.0"
   inkscape:pagecheckerboard="0"
   showgrid="false"
   fit-margin-top="0"
   fit-margin-left="0"
   fit-margin-right="0"
   fit-margin-bottom="0"
   inkscape:zoom="0.91213591"
   inkscape:cx="674.24163"
   inkscape:cy="209.94678"
   inkscape:window-width="1366"
   inkscape:window-height="694"
   inkscape:window-x="0"
   inkscape:window-y="21"
   inkscape:window-maximized="1"
   inkscape:current-layer="g10" /><defs
   id="defs6"><clipPath
     clipPathUnits="userSpaceOnUse"
     id="clipPath20"><path
       d="M 0,0 H 2479.9805 V 3508.0078 H 0 Z"
       clip-rule="evenodd"
       id="path18" /></clipPath></defs><g
   id="g8"
   transform="scale(0.31999998)"><g
     id="g10"
     transform="scale(2.9834817,2.4245886)"><path
       d="M 0,0 H 781.01939 V 472.72981 H 0 Z"
       style="fill:#000000;fill-opacity:1;fill-rule:nonzero;stroke:none;stroke-width:0.643484"
       id="path12" /></g><g
     id="g14"
     transform="matrix(1.3173496,0,0,1.3173496,0.55434421,-14.88112)"><g
       id="g16"
       clip-path="url(#clipPath20)"><g
         id="g22"
         transform="scale(3.125)"><text
           transform="translate(8,20)"
           style="font-variant:normal;font-weight:normal;font-size:13px;font-family:'DejaVu Sans Mono';-inkscape-font-specification:DejaVuSansMono;writing-mode:lr-tb;fill:#d3d3d3;fill-opacity:1;fill-rule:nonzero;stroke:none"
           id="text26"><tspan
             x="0 7.8266602 15.65332 23.47998 31.306641 39.133301"
             y="0"
             id="tspan24">These </tspan></text><text
           transform="translate(54.96875,20)"
           style="font-variant:normal;font-weight:bold;font-size:13px;font-family:'DejaVu Sans Mono';-inkscape-font-specification:DejaVuSansMono-Bold;writing-mode:lr-tb;fill:#ff0000;fill-opacity:1;fill-rule:nonzero;stroke:none"
           id="text30"><tspan
             x="0 7.8266602 15.65332 23.47998 31.306641 39.133301 46.959961 54.786621 62.613281 70.439941 78.266602"
             y="0"
             id="tspan28">recitatives</tspan></text><text
           transform="translate(148.88916,20)"
           style="font-variant:normal;font-weight:normal;font-size:13px;font-family:'DejaVu Sans Mono';-inkscape-font-specification:DejaVuSansMono;writing-mode:lr-tb;fill:#d3d3d3;fill-opacity:1;fill-rule:nonzero;stroke:none"
           id="text34"><tspan
             x="0 7.8266602 15.65332 23.47998 31.306641 39.133301 46.959961 54.786621 62.613281 70.439941 78.266602 86.093262 93.919922 101.74658 109.57324 117.3999 125.22656 133.05322 140.87988 148.70654 156.5332 164.35986 172.18652 180.01318 187.83984 195.6665 203.49316 211.31982 219.14648 226.97314 234.7998 242.62646 250.45312 258.27979 266.10645 273.93311 281.75977 289.58643 297.41309"
             y="0"
             id="tspan32">for thee,--my book and the war are one,</tspan></text><text
           transform="translate(8,35)"
           style="font-variant:normal;font-weight:normal;font-size:13px;font-family:'DejaVu Sans Mono';-inkscape-font-specification:DejaVuSansMono;writing-mode:lr-tb;fill:#d3d3d3;fill-opacity:1;fill-rule:nonzero;stroke:none"
           id="text38"><tspan
             x="0 7.8266602 15.65332 23.47998 31.306641 39.133301 46.959961 54.786621 62.613281 70.439941 78.266602 86.093262 93.919922 101.74658 109.57324 117.3999 125.22656 133.05322 140.87988 148.70654 156.5332 164.35986 172.18652 180.01318 187.83984 195.6665 203.49316 211.31982 219.14648"
             y="0"
             id="tspan36">Till that becomes unseen and </tspan></text><text
           transform="translate(234.98438,35)"
           style="font-variant:normal;font-weight:bold;font-size:13px;font-family:'DejaVu Sans Mono';-inkscape-font-specification:DejaVuSansMono-Bold;writing-mode:lr-tb;fill:#ff0000;fill-opacity:1;fill-rule:nonzero;stroke:none"
           id="text42"><tspan
             x="0 7.8266602 15.65332 23.47998 31.306641 39.133301 46.959961 54.786621"
             y="0"
             id="tspan40">receives</tspan></text><text
           transform="translate(305.43604,35)"
           style="font-variant:normal;font-weight:normal;font-size:13px;font-family:'DejaVu Sans Mono';-inkscape-font-specification:DejaVuSansMono;writing-mode:lr-tb;fill:#d3d3d3;fill-opacity:1;fill-rule:nonzero;stroke:none"
           id="text46"><tspan
             x="0 7.8266602 15.65332 23.47998 31.306641 39.133301 46.959961 54.786621 62.613281 70.439941 78.266602 86.093262 93.919922 101.74658 109.57324 117.3999 125.22656 133.05322"
             y="0"
             id="tspan44">proof in its turn.</tspan></text><text
           transform="translate(8,50)"
           style="font-variant:normal;font-weight:normal;font-size:13px;font-family:'DejaVu Sans Mono';-inkscape-font-specification:DejaVuSansMono;writing-mode:lr-tb;fill:#d3d3d3;fill-opacity:1;fill-rule:nonzero;stroke:none"
           id="text50"><tspan
             x="0 7.8266602 15.65332 23.47998 31.306641 39.133301 46.959961 54.786621 62.613281 70.439941 78.266602 86.093262 93.919922 101.74658 109.57324 117.3999 125.22656 133.05322 140.87988 148.70654 156.5332 164.35986 172.18652 180.01318 187.83984 195.6665 203.49316 211.31982 219.14648 226.97314 234.7998 242.62646 250.45312 258.27979"
             y="0"
             id="tspan48">The pilot seizes the king-pin, he </tspan></text><text
           transform="translate(274.10938,50)"
           style="font-variant:normal;font-weight:bold;font-size:13px;font-family:'DejaVu Sans Mono';-inkscape-font-specification:DejaVuSansMono-Bold;writing-mode:lr-tb;fill:#ff0000;fill-opacity:1;fill-rule:nonzero;stroke:none"
           id="text54"><tspan
             x="0 7.8266602 15.65332 23.47998 31.306641 39.133301"
             y="0"
             id="tspan52">heaves</tspan></text><text
           transform="translate(328.90479,50)"
           style="font-variant:normal;font-weight:normal;font-size:13px;font-family:'DejaVu Sans Mono';-inkscape-font-specification:DejaVuSansMono;writing-mode:lr-tb;fill:#d3d3d3;fill-opacity:1;fill-rule:nonzero;stroke:none"
           id="text58"><tspan
             x="0 7.8266602 15.65332 23.47998 31.306641 39.133301 46.959961 54.786621 62.613281 70.439941 78.266602 86.093262 93.919922 101.74658 109.57324 117.3999 125.22656 133.05322 140.87988 148.70654 156.5332 164.35986 172.18652"
             y="0"
             id="tspan56">down with a strong arm,</tspan></text><text
           transform="translate(8,65)"
           style="font-variant:normal;font-weight:normal;font-size:13px;font-family:'DejaVu Sans Mono';-inkscape-font-specification:DejaVuSansMono;writing-mode:lr-tb;fill:#d3d3d3;fill-opacity:1;fill-rule:nonzero;stroke:none"
           id="text62"><tspan
             x="0 7.8266602 15.65332 23.47998 31.306641 39.133301 46.959961 54.786621 62.613281 70.439941 78.266602 86.093262 93.919922 101.74658 109.57324 117.3999 125.22656 133.05322 140.87988 148.70654 156.5332 164.35986 172.18652 180.01318 187.83984 195.6665 203.49316"
             y="0"
             id="tspan60">The machinist rolls up his </tspan></text><text
           transform="translate(219.32813,65)"
           style="font-variant:normal;font-weight:bold;font-size:13px;font-family:'DejaVu Sans Mono';-inkscape-font-specification:DejaVuSansMono-Bold;writing-mode:lr-tb;fill:#ff0000;fill-opacity:1;fill-rule:nonzero;stroke:none"
           id="text66"><tspan
             x="0 7.8266602 15.65332 23.47998 31.306641 39.133301 46.959961"
             y="0"
             id="tspan64">sleeves</tspan></text><text
           transform="translate(274.125,65)"
           style="font-variant:normal;font-weight:normal;font-size:13px;font-family:'DejaVu Sans Mono';-inkscape-font-specification:DejaVuSansMono;writing-mode:lr-tb;fill:#d3d3d3;fill-opacity:1;fill-rule:nonzero;stroke:none"
           id="text70"><tspan
             x="0 7.8266602 15.65332 23.47998 31.306641 39.133301 46.959961 54.786621 62.613281 70.439941 78.266602 86.093262 93.919922 101.74658 109.57324 117.3999 125.22656 133.05322 140.87988 148.70654 156.5332 164.35986 172.18652 180.01318 187.83984 195.6665 203.49316 211.31982 219.14648 226.97314 234.7998 242.62646 250.45312"
             y="0"
             id="tspan68">, the policeman travels his beat,</tspan></text><text
           transform="translate(8,80)"
           style="font-variant:normal;font-weight:normal;font-size:13px;font-family:'DejaVu Sans Mono';-inkscape-font-specification:DejaVuSansMono;writing-mode:lr-tb;fill:#d3d3d3;fill-opacity:1;fill-rule:nonzero;stroke:none"
           id="text74"><tspan
             x="0 7.8266602 15.65332 23.47998 31.306641 39.133301 46.959961 54.786621 62.613281 70.439941 78.266602 86.093262 93.919922 101.74658 109.57324 117.3999 125.22656 133.05322 140.87988 148.70654 156.5332 164.35986 172.18652 180.01318 187.83984 195.6665 203.49316 211.31982 219.14648 226.97314 234.7998 242.62646 250.45312 258.27979 266.10645 273.93311 281.75977 289.58643 297.41309 305.23975 313.06641 320.89307 328.71973 336.54639 344.37305"
             y="0"
             id="tspan72">Voices of the diseas'd and despairing and of </tspan></text><text
           transform="translate(360.20313,80)"
           style="font-variant:normal;font-weight:bold;font-size:13px;font-family:'DejaVu Sans Mono';-inkscape-font-specification:DejaVuSansMono-Bold;writing-mode:lr-tb;fill:#ff0000;fill-opacity:1;fill-rule:nonzero;stroke:none"
           id="text78"><tspan
             x="0 7.8266602 15.65332 23.47998 31.306641 39.133301 46.959961"
             y="0"
             id="tspan76">thieves</tspan></text><text
           transform="translate(422.82666,80)"
           style="font-variant:normal;font-weight:normal;font-size:13px;font-family:'DejaVu Sans Mono';-inkscape-font-specification:DejaVuSansMono;writing-mode:lr-tb;fill:#d3d3d3;fill-opacity:1;fill-rule:nonzero;stroke:none"
           id="text82"><tspan
             x="0 7.8266602 15.65332 23.47998 31.306641 39.133301 46.959961 54.786621 62.613281 70.439941 78.266602"
             y="0"
             id="tspan80">and dwarfs,</tspan></text><text
           transform="translate(8,95)"
           style="font-variant:normal;font-weight:normal;font-size:13px;font-family:'DejaVu Sans Mono';-inkscape-font-specification:DejaVuSansMono;writing-mode:lr-tb;fill:#d3d3d3;fill-opacity:1;fill-rule:nonzero;stroke:none"
           id="text86"><tspan
             x="0 7.8266602 15.65332 23.47998 31.306641 39.133301 46.959961 54.786621 62.613281 70.439941 78.266602 86.093262 93.919922 101.74658 109.57324 117.3999 125.22656 133.05322 140.87988 148.70654 156.5332 164.35986 172.18652 180.01318 187.83984 195.6665 203.49316 211.31982 219.14648 226.97314 234.7998 242.62646 250.45312 258.27979 266.10645 273.93311 281.75977 289.58643 297.41309 305.23975 313.06641 320.89307 328.71973 336.54639 344.37305 352.19971 360.02637 367.85303 375.67969 383.50635 391.33301 399.15967 406.98633 414.81299 422.63965"
             y="0"
             id="tspan84">Putting higher claims for him there with his roll'd-up </tspan></text><text
           transform="translate(438.46875,95)"
           style="font-variant:normal;font-weight:bold;font-size:13px;font-family:'DejaVu Sans Mono';-inkscape-font-specification:DejaVuSansMono-Bold;writing-mode:lr-tb;fill:#ff0000;fill-opacity:1;fill-rule:nonzero;stroke:none"
           id="text90"><tspan
             x="0 7.8266602 15.65332 23.47998 31.306641 39.133301 46.959961"
             y="0"
             id="tspan88">sleeves</tspan></text><text
           transform="translate(8,110)"
           style="font-variant:normal;font-weight:normal;font-size:13px;font-family:'DejaVu Sans Mono';-inkscape-font-specification:DejaVuSansMono;writing-mode:lr-tb;fill:#d3d3d3;fill-opacity:1;fill-rule:nonzero;stroke:none"
           id="text94"><tspan
             x="0 7.8266602 15.65332 23.47998 31.306641 39.133301 46.959961 54.786621 62.613281 70.439941 78.266602 86.093262 93.919922"
             y="0"
             id="tspan92">The pirates, </tspan></text><text
           transform="translate(109.75,110)"
           style="font-variant:normal;font-weight:bold;font-size:13px;font-family:'DejaVu Sans Mono';-inkscape-font-specification:DejaVuSansMono-Bold;writing-mode:lr-tb;fill:#ff0000;fill-opacity:1;fill-rule:nonzero;stroke:none"
           id="text98"><tspan
             x="0 7.8266602 15.65332 23.47998 31.306641 39.133301 46.959961"
             y="0"
             id="tspan96">thieves</tspan></text><text
           transform="translate(164.54687,110)"
           style="font-variant:normal;font-weight:normal;font-size:13px;font-family:'DejaVu Sans Mono';-inkscape-font-specification:DejaVuSansMono;writing-mode:lr-tb;fill:#d3d3d3;fill-opacity:1;fill-rule:nonzero;stroke:none"
           id="text102"><tspan
             x="0 7.8266602 15.65332 23.47998 31.306641 39.133301 46.959961 54.786621 62.613281 70.439941 78.266602 86.093262 93.919922 101.74658 109.57324 117.3999 125.22656 133.05322 140.87988 148.70654 156.5332 164.35986 172.18652 180.01318 187.83984 195.6665 203.49316 211.31982 219.14648 226.97314 234.7998 242.62646 250.45312 258.27979 266.10645 273.93311 281.75977 289.58643 297.41309 305.23975 313.06641 320.89307 328.71973 336.54639 344.37305 352.19971 360.02637 367.85303 375.67969 383.50635"
             y="0"
             id="tspan100">, betrayers, murderers, slave-makers of the earth,</tspan></text><text
           transform="translate(8,125)"
           style="font-variant:normal;font-weight:normal;font-size:13px;font-family:'DejaVu Sans Mono';-inkscape-font-specification:DejaVuSansMono;writing-mode:lr-tb;fill:#d3d3d3;fill-opacity:1;fill-rule:nonzero;stroke:none"
           id="text106"><tspan
             x="0 7.8266602 15.65332 23.47998 31.306641 39.133301 46.959961 54.786621 62.613281 70.439941"
             y="0"
             id="tspan104">Toward it </tspan></text><text
           transform="translate(86.28125,125)"
           style="font-variant:normal;font-weight:bold;font-size:13px;font-family:'DejaVu Sans Mono';-inkscape-font-specification:DejaVuSansMono-Bold;writing-mode:lr-tb;fill:#ff0000;fill-opacity:1;fill-rule:nonzero;stroke:none"
           id="text110"><tspan
             x="0 7.8266602 15.65332 23.47998 31.306641 39.133301"
             y="0"
             id="tspan108">heaves</tspan></text><text
           transform="translate(141.07666,125)"
           style="font-variant:normal;font-weight:normal;font-size:13px;font-family:'DejaVu Sans Mono';-inkscape-font-specification:DejaVuSansMono;writing-mode:lr-tb;fill:#d3d3d3;fill-opacity:1;fill-rule:nonzero;stroke:none"
           id="text114"><tspan
             x="0 7.8266602 15.65332 23.47998 31.306641 39.133301 46.959961 54.786621 62.613281 70.439941 78.266602 86.093262 93.919922 101.74658 109.57324 117.3999 125.22656 133.05322 140.87988 148.70654 156.5332 164.35986 172.18652 180.01318 187.83984 195.6665 203.49316 211.31982 219.14648 226.97314 234.7998 242.62646 250.45312 258.27979 266.10645 273.93311 281.75977 289.58643 297.41309"
             y="0"
             id="tspan112">the shuddering longing ache of contact.</tspan></text><text
           transform="translate(8,140)"
           style="font-variant:normal;font-weight:normal;font-size:13px;font-family:'DejaVu Sans Mono';-inkscape-font-specification:DejaVuSansMono;writing-mode:lr-tb;fill:#d3d3d3;fill-opacity:1;fill-rule:nonzero;stroke:none"
           id="text118"><tspan
             x="0 7.8266602 15.65332 23.47998"
             y="0"
             id="tspan116">She </tspan></text><text
           transform="translate(39.3125,140)"
           style="font-variant:normal;font-weight:bold;font-size:13px;font-family:'DejaVu Sans Mono';-inkscape-font-specification:DejaVuSansMono-Bold;writing-mode:lr-tb;fill:#ff0000;fill-opacity:1;fill-rule:nonzero;stroke:none"
           id="text122"><tspan
             x="0 7.8266602 15.65332 23.47998 31.306641 39.133301 46.959961 54.786621"
             y="0"
             id="tspan120">receives</tspan></text><text
           transform="translate(109.76416,140)"
           style="font-variant:normal;font-weight:normal;font-size:13px;font-family:'DejaVu Sans Mono';-inkscape-font-specification:DejaVuSansMono;writing-mode:lr-tb;fill:#d3d3d3;fill-opacity:1;fill-rule:nonzero;stroke:none"
           id="text126"><tspan
             x="0 7.8266602 15.65332 23.47998 31.306641 39.133301 46.959961 54.786621 62.613281 70.439941 78.266602 86.093262 93.919922 101.74658 109.57324 117.3999 125.22656 133.05322 140.87988 148.70654 156.5332 164.35986 172.18652 180.01318 187.83984 195.6665 203.49316 211.31982 219.14648 226.97314 234.7998 242.62646 250.45312 258.27979 266.10645 273.93311 281.75977 289.58643 297.41309 305.23975 313.06641 320.89307 328.71973 336.54639 344.37305 352.19971 360.02637 367.85303 375.67969 383.50635 391.33301 399.15967 406.98633 414.81299 422.63965"
             y="0"
             id="tspan124">them as the laws of Nature receive them, she is strong,</tspan></text><text
           transform="translate(8,155)"
           style="font-variant:normal;font-weight:normal;font-size:13px;font-family:'DejaVu Sans Mono';-inkscape-font-specification:DejaVuSansMono;writing-mode:lr-tb;fill:#d3d3d3;fill-opacity:1;fill-rule:nonzero;stroke:none"
           id="text130"><tspan
             x="0 7.8266602 15.65332 23.47998 31.306641 39.133301 46.959961 54.786621 62.613281 70.439941 78.266602 86.093262 93.919922 101.74658 109.57324 117.3999 125.22656 133.05322 140.87988 148.70654 156.5332 164.35986 172.18652 180.01318 187.83984 195.6665 203.49316 211.31982 219.14648 226.97314 234.7998 242.62646"
             y="0"
             id="tspan128">Takes the lesson with calmness, </tspan></text><text
           transform="translate(258.45313,155)"
           style="font-variant:normal;font-weight:bold;font-size:13px;font-family:'DejaVu Sans Mono';-inkscape-font-specification:DejaVuSansMono-Bold;writing-mode:lr-tb;fill:#ff0000;fill-opacity:1;fill-rule:nonzero;stroke:none"
           id="text134"><tspan
             x="0 7.8266602 15.65332 23.47998 31.306641 39.133301 46.959961 54.786621 62.613281"
             y="0"
             id="tspan132">perceives</tspan></text><text
           transform="translate(336.73291,155)"
           style="font-variant:normal;font-weight:normal;font-size:13px;font-family:'DejaVu Sans Mono';-inkscape-font-specification:DejaVuSansMono;writing-mode:lr-tb;fill:#d3d3d3;fill-opacity:1;fill-rule:nonzero;stroke:none"
           id="text138"><tspan
             x="0 7.8266602 15.65332 23.47998 31.306641 39.133301 46.959961 54.786621 62.613281 70.439941 78.266602 86.093262 93.919922 101.74658 109.57324 117.3999 125.22656 133.05322 140.87988 148.70654 156.5332 164.35986 172.18652"
             y="0"
             id="tspan136">the corpse slowly borne</tspan></text><text
           transform="translate(8,170)"
           style="font-variant:normal;font-weight:bold;font-size:13px;font-family:'DejaVu Sans Mono';-inkscape-font-specification:DejaVuSansMono-Bold;writing-mode:lr-tb;fill:#ff0000;fill-opacity:1;fill-rule:nonzero;stroke:none"
           id="text142"><tspan
             x="0 7.8266602 15.65332 23.47998 31.306641 39.133301 46.959961 54.786621 62.613281"
             y="0"
             id="tspan140">Perceives</tspan></text><text
           transform="translate(86.279785,170)"
           style="font-variant:normal;font-weight:normal;font-size:13px;font-family:'DejaVu Sans Mono';-inkscape-font-specification:DejaVuSansMono;writing-mode:lr-tb;fill:#d3d3d3;fill-opacity:1;fill-rule:nonzero;stroke:none"
           id="text146"><tspan
             x="0 7.8266602 15.65332 23.47998 31.306641 39.133301 46.959961 54.786621 62.613281 70.439941 78.266602 86.093262 93.919922 101.74658 109.57324 117.3999 125.22656 133.05322 140.87988 148.70654 156.5332 164.35986 172.18652 180.01318 187.83984 195.6665 203.49316 211.31982 219.14648 226.97314 234.7998 242.62646 250.45312 258.27979 266.10645 273.93311 281.75977 289.58643 297.41309 305.23975 313.06641 320.89307 328.71973 336.54639 344.37305 352.19971 360.02637 367.85303 375.67969 383.50635 391.33301 399.15967 406.98633"
             y="0"
             id="tspan144">that it waits a little while in the door, that it was</tspan></text><text
           transform="translate(8,185)"
           style="font-variant:normal;font-weight:normal;font-size:13px;font-family:'DejaVu Sans Mono';-inkscape-font-specification:DejaVuSansMono;writing-mode:lr-tb;fill:#d3d3d3;fill-opacity:1;fill-rule:nonzero;stroke:none"
           id="text150"><tspan
             x="0 7.8266602 15.65332 23.47998 31.306641 39.133301 46.959961 54.786621 62.613281 70.439941 78.266602 86.093262"
             y="0"
             id="tspan148">For an army </tspan></text><text
           transform="translate(101.92188,185)"
           style="font-variant:normal;font-weight:bold;font-size:13px;font-family:'DejaVu Sans Mono';-inkscape-font-specification:DejaVuSansMono-Bold;writing-mode:lr-tb;fill:#ff0000;fill-opacity:1;fill-rule:nonzero;stroke:none"
           id="text154"><tspan
             x="0 7.8266602 15.65332 23.47998 31.306641 39.133301"
             y="0"
             id="tspan152">heaves</tspan></text><text
           transform="translate(156.71729,185)"
           style="font-variant:normal;font-weight:normal;font-size:13px;font-family:'DejaVu Sans Mono';-inkscape-font-specification:DejaVuSansMono;writing-mode:lr-tb;fill:#d3d3d3;fill-opacity:1;fill-rule:nonzero;stroke:none"
           id="text158"><tspan
             x="0 7.8266602 15.65332 23.47998 31.306641 39.133301 46.959961 54.786621 62.613281 70.439941 78.266602 86.093262 93.919922 101.74658 109.57324 117.3999 125.22656 133.05322 140.87988 148.70654 156.5332 164.35986 172.18652 180.01318 187.83984 195.6665 203.49316 211.31982 219.14648 226.97314 234.7998 242.62646 250.45312 258.27979 266.10645"
             y="0"
             id="tspan156">in sight, O another gathering army,</tspan></text><text
           transform="translate(8,200)"
           style="font-variant:normal;font-weight:normal;font-size:13px;font-family:'DejaVu Sans Mono';-inkscape-font-specification:DejaVuSansMono;writing-mode:lr-tb;fill:#d3d3d3;fill-opacity:1;fill-rule:nonzero;stroke:none"
           id="text162"><tspan
             x="0 7.8266602 15.65332 23.47998 31.306641 39.133301 46.959961 54.786621 62.613281 70.439941 78.266602"
             y="0"
             id="tspan160">The spirit </tspan></text><text
           transform="translate(94.09375,200)"
           style="font-variant:normal;font-weight:bold;font-size:13px;font-family:'DejaVu Sans Mono';-inkscape-font-specification:DejaVuSansMono-Bold;writing-mode:lr-tb;fill:#ff0000;fill-opacity:1;fill-rule:nonzero;stroke:none"
           id="text166"><tspan
             x="0 7.8266602 15.65332 23.47998 31.306641 39.133301 46.959961 54.786621"
             y="0"
             id="tspan164">receives</tspan></text><text
           transform="translate(164.54541,200)"
           style="font-variant:normal;font-weight:normal;font-size:13px;font-family:'DejaVu Sans Mono';-inkscape-font-specification:DejaVuSansMono;writing-mode:lr-tb;fill:#d3d3d3;fill-opacity:1;fill-rule:nonzero;stroke:none"
           id="text170"><tspan
             x="0 7.8266602 15.65332 23.47998 31.306641 39.133301 46.959961 54.786621 62.613281 70.439941 78.266602 86.093262 93.919922 101.74658 109.57324 117.3999 125.22656 133.05322 140.87988 148.70654 156.5332 164.35986 172.18652 180.01318 187.83984 195.6665 203.49316 211.31982 219.14648 226.97314 234.7998 242.62646 250.45312 258.27979 266.10645 273.93311 281.75977 289.58643 297.41309 305.23975 313.06641 320.89307 328.71973 336.54639 344.37305"
             y="0"
             id="tspan168">from the body just as much as it gives to the</tspan></text><text
           transform="translate(8,215)"
           style="font-variant:normal;font-weight:normal;font-size:13px;font-family:'DejaVu Sans Mono';-inkscape-font-specification:DejaVuSansMono;writing-mode:lr-tb;fill:#d3d3d3;fill-opacity:1;fill-rule:nonzero;stroke:none"
           id="text174"><tspan
             x="0 7.8266602 15.65332 23.47998 31.306641 39.133301 46.959961 54.786621 62.613281 70.439941 78.266602 86.093262 93.919922 101.74658 109.57324 117.3999 125.22656 133.05322"
             y="0"
             id="tspan172">Who has been wise </tspan></text><text
           transform="translate(148.89062,215)"
           style="font-variant:normal;font-weight:bold;font-size:13px;font-family:'DejaVu Sans Mono';-inkscape-font-specification:DejaVuSansMono-Bold;writing-mode:lr-tb;fill:#ff0000;fill-opacity:1;fill-rule:nonzero;stroke:none"
           id="text178"><tspan
             x="0 7.8266602 15.65332 23.47998 31.306641 39.133301 46.959961 54.786621"
             y="0"
             id="tspan176">receives</tspan></text><text
           transform="translate(219.34229,215)"
           style="font-variant:normal;font-weight:normal;font-size:13px;font-family:'DejaVu Sans Mono';-inkscape-font-specification:DejaVuSansMono;writing-mode:lr-tb;fill:#d3d3d3;fill-opacity:1;fill-rule:nonzero;stroke:none"
           id="text182"><tspan
             x="0 7.8266602 15.65332 23.47998 31.306641 39.133301 46.959961 54.786621 62.613281"
             y="0"
             id="tspan180">interest,</tspan></text><text
           transform="translate(8,230)"
           style="font-variant:normal;font-weight:normal;font-size:13px;font-family:'DejaVu Sans Mono';-inkscape-font-specification:DejaVuSansMono;writing-mode:lr-tb;fill:#d3d3d3;fill-opacity:1;fill-rule:nonzero;stroke:none"
           id="text186"><tspan
             x="0 7.8266602 15.65332 23.47998"
             y="0"
             id="tspan184">Who </tspan></text><text
           transform="translate(39.3125,230)"
           style="font-variant:normal;font-weight:bold;font-size:13px;font-family:'DejaVu Sans Mono';-inkscape-font-specification:DejaVuSansMono-Bold;writing-mode:lr-tb;fill:#ff0000;fill-opacity:1;fill-rule:nonzero;stroke:none"
           id="text190"><tspan
             x="0 7.8266602 15.65332 23.47998 31.306641 39.133301 46.959961 54.786621 62.613281"
             y="0"
             id="tspan188">perceives</tspan></text><text
           transform="translate(117.59229,230)"
           style="font-variant:normal;font-weight:normal;font-size:13px;font-family:'DejaVu Sans Mono';-inkscape-font-specification:DejaVuSansMono;writing-mode:lr-tb;fill:#d3d3d3;fill-opacity:1;fill-rule:nonzero;stroke:none"
           id="text194"><tspan
             x="0 7.8266602 15.65332 23.47998 31.306641 39.133301 46.959961 54.786621 62.613281 70.439941 78.266602 86.093262 93.919922 101.74658 109.57324 117.3999 125.22656 133.05322 140.87988 148.70654 156.5332 164.35986 172.18652 180.01318 187.83984 195.6665 203.49316 211.31982 219.14648 226.97314 234.7998 242.62646 250.45312 258.27979 266.10645 273.93311 281.75977 289.58643 297.41309 305.23975 313.06641 320.89307 328.71973 336.54639"
             y="0"
             id="tspan192">the indirect assuredly following the direct,</tspan></text><text
           transform="translate(8,245)"
           style="font-variant:normal;font-weight:normal;font-size:13px;font-family:'DejaVu Sans Mono';-inkscape-font-specification:DejaVuSansMono;writing-mode:lr-tb;fill:#d3d3d3;fill-opacity:1;fill-rule:nonzero;stroke:none"
           id="text198"><tspan
             x="0 7.8266602 15.65332 23.47998 31.306641 39.133301 46.959961 54.786621 62.613281 70.439941 78.266602 86.093262 93.919922 101.74658 109.57324 117.3999 125.22656 133.05322 140.87988 148.70654 156.5332 164.35986 172.18652 180.01318 187.83984 195.6665 203.49316 211.31982 219.14648 226.97314 234.7998 242.62646 250.45312 258.27979"
             y="0"
             id="tspan196">When down a narrow aisle amid the </tspan></text><text
           transform="translate(274.10938,245)"
           style="font-variant:normal;font-weight:bold;font-size:13px;font-family:'DejaVu Sans Mono';-inkscape-font-specification:DejaVuSansMono-Bold;writing-mode:lr-tb;fill:#ff0000;fill-opacity:1;fill-rule:nonzero;stroke:none"
           id="text202"><tspan
             x="0 7.8266602 15.65332 23.47998 31.306641 39.133301 46.959961"
             y="0"
             id="tspan200">thieves</tspan></text><text
           transform="translate(336.73291,245)"
           style="font-variant:normal;font-weight:normal;font-size:13px;font-family:'DejaVu Sans Mono';-inkscape-font-specification:DejaVuSansMono;writing-mode:lr-tb;fill:#d3d3d3;fill-opacity:1;fill-rule:nonzero;stroke:none"
           id="text206"><tspan
             x="0 7.8266602 15.65332 23.47998 31.306641 39.133301 46.959961 54.786621 62.613281 70.439941 78.266602 86.093262 93.919922 101.74658 109.57324 117.3999 125.22656 133.05322 140.87988 148.70654 156.5332 164.35986 172.18652 180.01318"
             y="0"
             id="tspan204">and outlaws of the land,</tspan></text><text
           transform="translate(8,260)"
           style="font-variant:normal;font-weight:normal;font-size:13px;font-family:'DejaVu Sans Mono';-inkscape-font-specification:DejaVuSansMono;writing-mode:lr-tb;fill:#d3d3d3;fill-opacity:1;fill-rule:nonzero;stroke:none"
           id="text210"><tspan
             x="0 7.8266602 15.65332 23.47998"
             y="0"
             id="tspan208">Who </tspan></text><text
           transform="translate(39.3125,260)"
           style="font-variant:normal;font-weight:bold;font-size:13px;font-family:'DejaVu Sans Mono';-inkscape-font-specification:DejaVuSansMono-Bold;writing-mode:lr-tb;fill:#ff0000;fill-opacity:1;fill-rule:nonzero;stroke:none"
           id="text214"><tspan
             x="0 7.8266602 15.65332 23.47998 31.306641 39.133301 46.959961 54.786621"
             y="0"
             id="tspan212">believes</tspan></text><text
           transform="translate(109.76416,260)"
           style="font-variant:normal;font-weight:normal;font-size:13px;font-family:'DejaVu Sans Mono';-inkscape-font-specification:DejaVuSansMono;writing-mode:lr-tb;fill:#d3d3d3;fill-opacity:1;fill-rule:nonzero;stroke:none"
           id="text218"><tspan
             x="0 7.8266602 15.65332 23.47998 31.306641 39.133301 46.959961 54.786621 62.613281 70.439941 78.266602 86.093262 93.919922 101.74658 109.57324 117.3999 125.22656 133.05322 140.87988 148.70654 156.5332 164.35986 172.18652 180.01318 187.83984 195.6665 203.49316 211.31982 219.14648 226.97314 234.7998 242.62646 250.45312 258.27979 266.10645 273.93311 281.75977 289.58643 297.41309 305.23975 313.06641 320.89307 328.71973 336.54639 344.37305 352.19971 360.02637 367.85303 375.67969 383.50635 391.33301"
             y="0"
             id="tspan216">not only in our globe with its sun and moon, but in</tspan></text><text
           transform="translate(8,275)"
           style="font-variant:normal;font-weight:normal;font-size:13px;font-family:'DejaVu Sans Mono';-inkscape-font-specification:DejaVuSansMono;writing-mode:lr-tb;fill:#d3d3d3;fill-opacity:1;fill-rule:nonzero;stroke:none"
           id="text222"><tspan
             x="0 7.8266602 15.65332 23.47998 31.306641 39.133301 46.959961 54.786621 62.613281 70.439941 78.266602 86.093262 93.919922 101.74658 109.57324 117.3999 125.22656 133.05322 140.87988 148.70654 156.5332 164.35986 172.18652 180.01318 187.83984 195.6665 203.49316 211.31982 219.14648 226.97314 234.7998 242.62646 250.45312 258.27979 266.10645 273.93311"
             y="0"
             id="tspan220">As here in careless trill, I and my </tspan></text><text
           transform="translate(289.76563,275)"
           style="font-variant:normal;font-weight:bold;font-size:13px;font-family:'DejaVu Sans Mono';-inkscape-font-specification:DejaVuSansMono-Bold;writing-mode:lr-tb;fill:#ff0000;fill-opacity:1;fill-rule:nonzero;stroke:none"
           id="text226"><tspan
             x="0 7.8266602 15.65332 23.47998 31.306641 39.133301 46.959961 54.786621 62.613281 70.439941 78.266602"
             y="0"
             id="tspan224">recitatives</tspan></text><text
           transform="translate(375.85938,275)"
           style="font-variant:normal;font-weight:normal;font-size:13px;font-family:'DejaVu Sans Mono';-inkscape-font-specification:DejaVuSansMono;writing-mode:lr-tb;fill:#d3d3d3;fill-opacity:1;fill-rule:nonzero;stroke:none"
           id="text230"><tspan
             x="0 7.8266602 15.65332 23.47998 31.306641 39.133301 46.959961 54.786621 62.613281 70.439941 78.266602 86.093262 93.919922 101.74658 109.57324 117.3999 125.22656 133.05322 140.87988 148.70654 156.5332 164.35986"
             y="0"
             id="tspan228">, with faith and love,</tspan></text></g></g></g></g>
</svg>
